# xmcd CD database file
#
# Track frame offsets:
#	150
#	13501
#	31062
#	43728
#	71777
#	93596
#	139445
#	153910
#	166913
#	184537
#	207322
#	229764
#	256229
#	283873
#	303947
#
# Disc length: 4334 seconds
#
# Revision: 0
# Processed by: cddbd v1.4PL0 Copyright (c) Steve Scherf et al.
# Submitted via: CDex 1.51
#
DISCID=cc10ec0f
DTITLE=Nora Reilly - Celtic Visions
DYEAR=1998
DGENRE=New Age
TTITLE0=Down by the Sally Gardens 
TTITLE1=Ever Heavenly 
TTITLE2=With All My Heart 
TTITLE3=Take My Heart 
TTITLE4=You Sing to Me 
TTITLE5=Bard of Armagh 
TTITLE6=Stór, a Stór a Ghrá 
TTITLE7=From Spring Days to Winter 
TTITLE8=Song of Solomon 
TTITLE9=Spancil Hill 
TTITLE10=Mhaighdean Mhara 
TTITLE11=Harmonious Pipe 
TTITLE12=The Shallow Sea
TTITLE13=My Lagan Love
TTITLE14=The From "Miller's Crossing
EXTD=YEAR: 1998
EXTT0=
EXTT1=
EXTT2=
EXTT3=
EXTT4=
EXTT5=
EXTT6=
EXTT7=
EXTT8=
EXTT9=
EXTT10=
EXTT11=
EXTT12=
EXTT13=
EXTT14=
PLAYORDER=
